G04 FreePCB version 1.359*
G04 D:\Dropbox\work\muk\phd\rc3 collaborations\aws hardware\pcbs\gen3serial\bottom_copper.grb*
G04 bottom copper layer *
G04 Scale: 100 percent, Rotated: No, Reflected: No *
%FSLAX24Y24*%
%MOIN*%
%LN bottom copper *%
G04 Rounded Rectangle Macro, params: W/2, H/2, R *
%AMRNDREC*
21,1,$1+$1,$2+$2-$3-$3,0,0,0*
21,1,$1+$1-$3-$3,$2+$2,0,0,0*
1,1,$3+$3,$1-$3,$2-$3*
1,1,$3+$3,$3-$1,$2-$3*
1,1,$3+$3,$1-$3,$3-$2*
1,1,$3+$3,$3-$1,$3-$2*%
G04 Rectangular Thermal Macro, params: W/2, H/2, T/2 *
%AMRECTHERM*
$4=$3/2*
21,1,$1-$3,$2-$3,0-$1/2-$4,0-$2/2-$4,0*
21,1,$1-$3,$2-$3,0-$1/2-$4,$2/2+$4,0*
21,1,$1-$3,$2-$3,$1/2+$4,0-$2/2-$4,0*
21,1,$1-$3,$2-$3,$1/2+$4,$2/2+$4,0*%
%ADD10C,0.005000*%
%ADD11R,0.060000X0.060000*%
%ADD12R,0.070000X0.070000*%
%ADD13C,0.020000*%
%ADD14C,0.050000*%
%ADD15C,0.015000*%
%ADD16C,0.040000*%
G90*
G70D02*

G04 Step and Repeat for panelization *

G04 ----------------------- Draw board outline (positive)*
%LPD*%
G54D10*
G01X9900Y31000D02*
G01X10100Y31000D01*
G04 end of side 1*
G01X37000Y31000D01*
G04 end of side 2*
G01X37000Y2900D01*
G04 end of side 3*
G01X10000Y2900D01*
G04 end of side 4*
G01X9900Y31000D01*

G04 -------------- Draw Parts, Pads, Traces, Vias and Text (positive)*
%LPD*%
G04 Draw part ELECTRON*
G54D11*
G01X18000Y23000D03*
G01X18000Y22000D03*
G01X18000Y21000D03*
G01X18000Y20000D03*
G01X18000Y19000D03*
G01X18000Y18000D03*
G01X18000Y17000D03*
G01X18000Y16000D03*
G01X18000Y15000D03*
G01X18000Y14000D03*
G01X18000Y13000D03*
G01X18000Y12000D03*
G01X18000Y11000D03*
G01X18000Y10000D03*
G01X18000Y9000D03*
G01X18000Y8000D03*
G01X18000Y7000D03*
G01X18000Y6000D03*
G01X25000Y6000D03*
G01X25000Y7000D03*
G01X25000Y8000D03*
G01X25000Y9000D03*
G01X25000Y10000D03*
G01X25000Y11000D03*
G01X25000Y12000D03*
G01X25000Y13000D03*
G01X25000Y14000D03*
G01X25000Y15000D03*
G01X25000Y16000D03*
G01X25000Y17000D03*
G01X25000Y18000D03*
G01X25000Y19000D03*
G01X25000Y20000D03*
G01X25000Y21000D03*
G01X25000Y22000D03*
G01X25000Y23000D03*
G01X18000Y24000D03*
G01X25000Y24000D03*
G04 Draw part PWR*
G01X29400Y19500D03*
G01X30400Y19500D03*
G01X29400Y18500D03*
G01X30400Y18500D03*
G01X29400Y17500D03*
G01X30400Y17500D03*
G01X29400Y16500D03*
G01X30400Y16500D03*
G04 Draw part SDCARD*
G01X27500Y29000D03*
G01X27500Y28000D03*
G01X27500Y27000D03*
G01X27500Y26000D03*
G01X27500Y25000D03*
G01X27500Y24000D03*
G04 Draw part DS3231*
G01X14000Y28000D03*
G01X15000Y28000D03*
G01X16000Y28000D03*
G01X17000Y28000D03*
G01X18000Y28000D03*
G01X19000Y28000D03*
G04 Draw part J3*
G01X16400Y6000D03*
G01X16400Y7000D03*
G04 Draw part MOTE_I2C*
G01X11100Y26200D03*
G01X11100Y25200D03*
G01X11100Y24200D03*
G01X11100Y23200D03*
G04 Draw part D1-D4*
G01X26500Y15000D03*
G01X26500Y14000D03*
G01X26500Y13000D03*
G01X26500Y12000D03*
G04 Draw part BAT*
G01X33400Y19500D03*
G01X33400Y18500D03*
G04 Draw part MOTE_I2C1*
G01X16000Y23000D03*
G01X16000Y22000D03*
G01X16000Y21000D03*
G01X16000Y20000D03*
G04 Draw part SWITCH*
G01X31400Y22500D03*
G01X32400Y22500D03*
G01X33400Y22500D03*
G04 Draw part SOLAR-IN*
G54D12*
G01X32300Y4500D03*
G01X31300Y4500D03*
G04 Draw part TP4056*
G54D11*
G01X34600Y6000D03*
G01X34600Y15000D03*
G01X29100Y15000D03*
G01X33400Y15000D03*
G01X30300Y15000D03*
G01X29100Y6000D03*
G04 Draw part J1*
G01X24100Y30200D03*
G01X23100Y30200D03*
G04 Draw part J4*
G01X33400Y8900D03*
G01X33400Y9900D03*
G04 Draw part J5*
G01X30300Y8900D03*
G01X30300Y9900D03*
G04 Draw part RX*
G01X12200Y30300D03*

G04 Draw traces*
G54D13*
G01X30400Y18500D02*
G01X30400Y19500D01*
G01X30400Y16500D02*
G01X30400Y17500D01*
G01X30400Y17500D02*
G01X30400Y18500D01*
G01X19000Y28000D02*
G01X19000Y29000D01*
G01X19000Y29000D02*
G01X27500Y29000D01*
G01X11100Y26200D02*
G01X11100Y26300D01*
G01X11100Y26300D02*
G01X11800Y27000D01*
G01X11800Y27000D02*
G01X14900Y27000D01*
G54D14*
G01X14900Y27000D03*
G01X19000Y27000D03*
G54D13*
G01X19000Y27000D02*
G01X19000Y28000D01*
G01X25000Y20000D02*
G01X27300Y20000D01*
G01X27300Y20000D02*
G01X27300Y20600D01*
G01X27300Y20600D02*
G01X30400Y20600D01*
G01X30400Y20600D02*
G01X30400Y19500D01*
G01X27500Y29000D02*
G01X23700Y29000D01*
G54D14*
G01X23700Y29000D03*
G01X23700Y24000D03*
G54D13*
G01X23700Y24000D02*
G01X23700Y20000D01*
G01X23700Y20000D02*
G01X25000Y20000D01*
G01X30400Y16500D02*
G01X32100Y16500D01*
G01X32100Y16500D02*
G01X32100Y12100D01*
G54D14*
G01X32100Y12100D03*
G01X34600Y12100D03*
G54D13*
G01X34600Y12100D02*
G01X34600Y15000D01*
G01X29100Y15000D02*
G01X29100Y13200D01*
G54D14*
G01X29100Y13200D03*
G01X35500Y13200D03*
G54D13*
G01X35500Y13200D02*
G01X35500Y21200D01*
G01X35500Y21200D02*
G01X32400Y21200D01*
G01X32400Y21200D02*
G01X32400Y22500D01*
G01X33400Y18500D02*
G01X33400Y15000D01*
G01X33400Y9900D02*
G01X33400Y15000D01*
G54D15*
G01X27500Y26000D02*
G01X22800Y26000D01*
G54D16*
G01X22800Y26000D03*
G01X19700Y26000D03*
G54D15*
G01X19700Y26000D02*
G01X19700Y18700D01*
G01X19700Y18700D02*
G01X18000Y17000D01*
G54D13*
G01X34600Y6000D02*
G01X32300Y6000D01*
G01X32300Y6000D02*
G01X32300Y4500D01*
G01X33400Y8900D02*
G01X33400Y6000D01*
G01X33400Y6000D02*
G01X34700Y6000D01*
G01X34700Y6000D02*
G01X34600Y6000D01*
G01X26500Y15000D02*
G01X25000Y15000D01*
G01X16400Y6000D02*
G01X18000Y6000D01*
G01X26500Y14000D02*
G01X25000Y14000D01*
G01X23100Y30200D02*
G01X20900Y30200D01*
G54D14*
G01X20900Y30200D03*
G01X20900Y28000D03*
G54D13*
G01X20900Y28000D02*
G01X18600Y25700D01*
G01X18600Y25700D02*
G01X18600Y24000D01*
G01X18600Y24000D02*
G01X18000Y24000D01*
G01X26500Y13000D02*
G01X25000Y13000D01*
G54D15*
G01X11100Y25200D02*
G01X11000Y25200D01*
G01X11000Y25200D02*
G01X12300Y25200D01*
G01X12300Y25200D02*
G01X13600Y26500D01*
G01X13600Y26500D02*
G01X16000Y26500D01*
G01X16000Y26500D02*
G01X16000Y28000D01*
G54D13*
G01X26500Y12000D02*
G01X25000Y12000D01*
G54D15*
G01X11100Y24200D02*
G01X12900Y24200D01*
G01X12900Y24200D02*
G01X12900Y24900D01*
G01X12900Y24900D02*
G01X13600Y25600D01*
G01X13600Y25600D02*
G01X17000Y25600D01*
G01X17000Y25600D02*
G01X17000Y28000D01*
G54D13*
G01X18000Y22000D02*
G01X16000Y22000D01*
G54D15*
G01X18000Y14000D02*
G01X21600Y17600D01*
G01X21600Y17600D02*
G01X21600Y25000D01*
G01X21600Y25000D02*
G01X27500Y25000D01*
G01X11100Y23200D02*
G01X13600Y23200D01*
G01X13600Y23200D02*
G01X13600Y25000D01*
G01X13600Y25000D02*
G01X18000Y25000D01*
G01X18000Y25000D02*
G01X18000Y28000D01*
G54D13*
G01X18000Y23000D02*
G01X16000Y23000D01*
G01X29400Y18500D02*
G01X29400Y19500D01*
G01X29400Y16500D02*
G01X29400Y17500D01*
G01X29400Y17500D02*
G01X29400Y18500D01*
G01X31400Y22500D02*
G01X31400Y21300D01*
G01X31400Y21300D02*
G01X28300Y21300D01*
G54D14*
G01X28300Y21300D03*
G01X28300Y19500D03*
G54D13*
G01X28300Y19500D02*
G01X29400Y19500D01*
G01X24100Y30200D02*
G01X26100Y30200D01*
G54D14*
G01X26100Y30200D03*
G01X26100Y21300D03*
G54D13*
G01X26100Y21300D02*
G01X31400Y21300D01*
G01X31400Y21300D02*
G01X31400Y22500D01*
G01X25000Y23000D02*
G01X27500Y23000D01*
G01X27500Y23000D02*
G01X27500Y24000D01*
G01X30300Y15000D02*
G01X31400Y15000D01*
G54D14*
G01X31400Y15000D03*
G01X34900Y17300D03*
G54D13*
G01X34900Y17300D02*
G01X34900Y18700D01*
G01X34900Y18700D02*
G01X33400Y19500D01*
G01X30300Y9900D02*
G01X30300Y15000D01*
G54D15*
G01X18000Y15000D02*
G01X20900Y17900D01*
G01X20900Y17900D02*
G01X20900Y25000D01*
G01X20900Y25000D02*
G01X22900Y27000D01*
G01X22900Y27000D02*
G01X27500Y27000D01*
G54D13*
G01X16000Y20000D02*
G01X18000Y20000D01*
G01X16000Y20000D02*
G01X12200Y22200D01*
G54D14*
G01X12200Y22200D03*
G01X12200Y28000D03*
G54D13*
G01X12200Y28000D02*
G01X12200Y30300D01*
G01X29100Y6000D02*
G01X31300Y6000D01*
G01X31300Y6000D02*
G01X31300Y4500D01*
G01X30300Y8900D02*
G01X30300Y6000D01*
G01X30300Y6000D02*
G01X29100Y6000D01*
G01X16000Y21000D02*
G01X18000Y21000D01*
G54D15*
G01X18000Y16000D02*
G01X20300Y18300D01*
G01X20300Y18300D02*
G01X20300Y25100D01*
G01X20300Y25100D02*
G01X23200Y28000D01*
G01X23200Y28000D02*
G01X27500Y28000D01*
G54D13*
G01X16400Y7000D02*
G01X18000Y7000D01*

G04 Draw Text*
M00*
M02*
