;Holesize 1 =   40.0 PLATED MILS
;Holesize 2 =   38.0 PLATED MILS
;Holesize 3 =   20.0 PLATED MILS
;Holesize 4 =   15.0 PLATED MILS
M48
INCH,00.0000
T01C0.040
T02C0.038
T03C0.020
T04C0.015
%
G05
G90
T01
X018000Y023000
X018000Y022000
X018000Y021000
X018000Y020000
X018000Y019000
X018000Y018000
X018000Y017000
X018000Y016000
X018000Y015000
X018000Y014000
X018000Y013000
X018000Y012000
X018000Y011000
X018000Y010000
X018000Y009000
X018000Y008000
X018000Y007000
X018000Y006000
X025000Y006000
X025000Y007000
X025000Y008000
X025000Y009000
X025000Y010000
X025000Y011000
X025000Y012000
X025000Y013000
X025000Y014000
X025000Y015000
X025000Y016000
X025000Y017000
X025000Y018000
X025000Y019000
X025000Y020000
X025000Y021000
X025000Y022000
X025000Y023000
X018000Y024000
X025000Y024000
X029400Y019500
X030400Y019500
X029400Y018500
X030400Y018500
X029400Y017500
X030400Y017500
X029400Y016500
X030400Y016500
X027500Y029000
X027500Y028000
X027500Y027000
X027500Y026000
X027500Y025000
X027500Y024000
X014000Y028000
X015000Y028000
X016000Y028000
X017000Y028000
X018000Y028000
X019000Y028000
X016400Y006000
X016400Y007000
X033400Y019500
X033400Y018500
X034600Y006000
X034600Y015000
X029100Y015000
X033400Y015000
X030300Y015000
X029100Y006000
X024100Y030200
X023100Y030200
X033400Y008900
X033400Y009900
X030300Y008900
X030300Y009900
X012200Y030300
T02
X011100Y026200
X011100Y025200
X011100Y024200
X011100Y023200
X026500Y015000
X026500Y014000
X026500Y013000
X026500Y012000
X016000Y023000
X016000Y022000
X016000Y021000
X016000Y020000
X031400Y022500
X032400Y022500
X033400Y022500
X032300Y004500
X031300Y004500
T03
X014900Y027000
X019000Y027000
X023700Y029000
X023700Y024000
X032100Y012100
X034600Y012100
X029100Y013200
X035500Y013200
X020900Y030200
X020900Y028000
X028300Y021300
X028300Y019500
X026100Y030200
X026100Y021300
X031400Y015000
X034900Y017300
X012200Y022200
X012200Y028000
T04
X022800Y026000
X019700Y026000
M30
